<svg xmlns="http://www.w3.org/2000/svg" viewBox="0 0 130 85">
    <circle id="bg" cx="63.72" cy="41.97" r="41.97" fill="#fff"></circle>
    <path id="stroke" d="M63.72 2a40 40 0 11-40 40 40 40 0 0140-40m0-2a42 42 0 1042 42 42 42 0 00-42-42z" fill="#81a2b2" opacity=".25"></path>
    <g id="logo">
        <path d="M46.23 51.91l4.63 7.25a2 2 0 003.38 0l10.37-16.88-7.71-12.55-10.73 18a4 4 0 00.06 4.18z" fill="#00a99d"></path><path d="M83 47.7l-10.73-18-7.7 12.55L75 59.14a2 2 0 003.38 0L83 51.91a4 4 0 000-4.21z" fill="#ef445a"></path>
        <path d="M69.36 24.79l-3.06-4.87a2 2 0 00-3.39 0l-3.06 4.87-3 4.94 7.71 12.55 7.7-12.55z" fill="#01445a"></path>
    </g>
</svg>